<svg xmlns="http://www.w3.org/2000/svg" viewBox="0 0 165.12 92.93"><defs><style>.cls-1{fill:#fff;}</style></defs><title>Asset 3</title><g id="Layer_2" data-name="Layer 2"><g id="Layer_1-2" data-name="Layer 1"><path class="cls-1" d="M165.12,47c-.16,1.08-.37,2.15-.47,3.23-1,10.92-10.78,20.57-21.76,21.52-6.54.57-12.69-.61-18.08-4.46a24.44,24.44,0,0,1-10.08-17,26.73,26.73,0,0,1,4.73-19.89,22.91,22.91,0,0,1,34.08-3.2L155.47,29c0-.7.08-1.11.08-1.52,0-5.32,0-10.64,0-16,0-2.24.08-4.48.09-6.72A5,5,0,0,1,158.88,0h2.64c1.68.74,3.08,1.72,3.35,3.73a2.13,2.13,0,0,0,.25.59ZM140,63.73c4.21-.39,6.31-1,8.54-2.58A16.75,16.75,0,0,0,156,47.25a16.93,16.93,0,0,0-4.24-12.59c-6.79-7.43-18.24-7.21-24.34.63a18.09,18.09,0,0,0-1.29,20.78A15.54,15.54,0,0,0,140,63.73Z"/><path class="cls-1" d="M0,45.12c.22-1.32.42-2.63.65-3.95C2.52,30.73,9,24.53,19,21.91c8.9-2.33,17-.36,23.76,5.94C48,32.79,50.43,39.07,50.43,46.3c0,6.29-1.55,12.06-5.53,17.07a22.87,22.87,0,0,1-33.57,2.3L9.74,64.18l-.29.19c0,.41-.06.83-.06,1.25V86.85c0,.44,0,.88,0,1.32C9.28,90.89,8,92.52,5.66,92.85A4.5,4.5,0,0,1,.25,89.64,2.12,2.12,0,0,0,0,89.28Zm41.66,1.74A46.57,46.57,0,0,0,41,42.14c-1.51-6.43-5.47-10.72-11.86-12.32a15.09,15.09,0,0,0-16.3,5.41C9,39.92,8.18,45.32,9.57,51.23A16.2,16.2,0,0,0,28.46,63.41,16.8,16.8,0,0,0,41.66,46.86Z"/><path class="cls-1" d="M165.12,4.32a2.13,2.13,0,0,1-.25-.59c-.27-2-1.67-3-3.35-3.73h3.6Z"/><path class="cls-1" d="M82.22,71.91c-9.47-.1-17-4-21.76-12.41-2.61-4.6-3.24-9.73-3.11-14.94A23.77,23.77,0,0,1,78.56,21.34c7.32-.9,14.09.42,20,5a23.07,23.07,0,0,1,8.57,14.25c1.18,6.14.85,12.2-2,17.87C101,66.75,94.17,71.1,85,71.76,84.09,71.83,83.22,71.86,82.22,71.91Zm.07-8.2c6.53-.21,11.5-2.79,14.49-8.57a19,19,0,0,0,1.61-12.7C97.18,36.31,93.55,32,87.61,30.1A15.35,15.35,0,0,0,71.4,33.69c-4.68,4.47-5.86,10.18-4.9,16.41A16.05,16.05,0,0,0,82.29,63.71Z"/></g></g></svg>