<svg id="Layer_1" data-name="Layer 1" xmlns="http://www.w3.org/2000/svg" viewBox="0 0 3360.3 1600.41"><defs><style>.cls-1{fill:#fff;}</style></defs><title>O (POD)_NO O</title><path class="cls-1" d="M2031.7-1365.9v-658.5q.3-3.45.3-6.9a83.33,83.33,0,0,0-84.3-82.4,83.32,83.32,0,0,0-82.4,82.4v.7l.4,137.7.3,198.4v12.7l1,2.3c-202.3-178.2-510.7-158.6-688.9,43.7a488.68,488.68,0,0,0-121.8,322.4c0,267.6,217.9,487.8,487.8,487.8s487.8-220.1,487.8-487.8c0-5.9-.1-11.8-.4-17.7C2031.7-1345.6,2031.7-1360.2,2031.7-1365.9ZM1544.2-994.8h0c-176,0-318.7-142.7-318.7-318.7s142.7-318.7,318.7-318.7,318.7,142.7,318.7,318.7S1720.3-994.8,1544.2-994.8Z" transform="translate(1328.3 2113.7)"/><path class="cls-1" d="M-840.5-1801.3c-269.9,0-487.8,220.2-487.8,487.8q0,8.85.3,17.7v693.2q-.3,3.45-.3,6.9a83.33,83.33,0,0,0,84.3,82.4,83.32,83.32,0,0,0,82.4-82.4v-.7l-.3-137.7-.3-198.3V-945l-1.1-2.3C-961-769.2-652.6-788.9-474.5-991.2a487.81,487.81,0,0,0,121.7-322.3C-352.7-1581.1-570.6-1801.3-840.5-1801.3Zm0,806.5c-176,0-318.7-142.7-318.7-318.7s142.7-318.7,318.7-318.7,318.7,142.7,318.7,318.7S-664.5-994.8-840.5-994.8Z" transform="translate(1328.3 2113.7)"/></svg>