<svg id="Layer_1" data-name="Layer 1" xmlns="http://www.w3.org/2000/svg" viewBox="0 0 3360.34 1600.61"><defs><style>.cls-1{fill:#fff;}.cls-2{fill:none;}</style></defs><title>O (POD)_03</title><path class="cls-1" d="M354.71-1801.28h-1.44c-269-1.16-488,216-489.19,485v1.37c-.76,267.58,216.46,488.48,486.4,489.2S839-1044.49,839.71-1312.1C840.85-1581.1,623.71-1800.1,354.71-1801.28Zm-3.65,806.51H351c-176-.55-318.26-143.72-317.73-319.72S176.93-1632.76,353-1632.21s318.22,143.64,317.76,319.62S527.09-994.27,351.06-994.77Z" transform="translate(1328.29 2113.79)"/><path class="cls-2" d="M2031.71-1365.94v-658.49c.18-2.29.34-4.58.34-6.92a83.36,83.36,0,0,0-84.27-82.44,83.37,83.37,0,0,0-82.44,82.44v.68l.4,137.68.3,198.4v12.71l1,2.34c-202.29-178.16-510.7-158.61-688.87,43.68a488.1,488.1,0,0,0-121.76,322.37c0,267.58,217.85,487.79,487.79,487.79S2032-1045.82,2032-1313.49c0-5.93-.14-11.84-.36-17.72C2031.71-1345.56,2031.71-1360.21,2031.71-1365.94ZM1544.24-994.77h0c-176,0-318.7-142.72-318.69-318.74s142.71-318.71,318.73-318.7S1863-1489.49,1863-1313.49,1720.26-994.77,1544.24-994.77Z" transform="translate(1328.29 2113.79)"/><path class="cls-2" d="M-840.5-1801.28c-269.94,0-487.79,220.21-487.79,487.79,0,5.93.14,11.84.34,17.72v693.22c-.18,2.29-.34,4.6-.34,6.92A83.35,83.35,0,0,0-1244-513.19a83.35,83.35,0,0,0,82.44-82.44v-.68l-.3-137.68-.31-198.27V-945l-1.06-2.34c202.34,178.1,510.74,158.45,688.85-43.89a488.12,488.12,0,0,0,121.71-322.29C-352.69-1581.07-570.56-1801.28-840.5-1801.28Zm0,806.51c-176,0-318.72-142.72-318.72-318.72s142.7-318.72,318.72-318.72,318.72,142.7,318.72,318.72S-664.48-994.77-840.5-994.77Z" transform="translate(1328.29 2113.79)"/></svg>