<svg xmlns="http://www.w3.org/2000/svg" viewBox="0 0 3360.34 3360.34"><defs><style>.cls-1{fill:none;}.cls-2{fill:#fff;}</style></defs><title>P&amp;amp;D_SVG</title><g id="Layer_2" data-name="Layer 2"><g id="Layer_1-2" data-name="Layer 1"><rect class="cls-1" width="3360.34" height="3360.34"/><path class="cls-2" d="M3360,1627.72V969.23c.18-2.29.34-4.58.34-6.92a83.36,83.36,0,0,0-166.71,0V963l.4,137.68.3,198.4v12.71l1,2.34C2993,1136,2684.63,1155.51,2506.46,1357.8a488.08,488.08,0,0,0-121.76,322.37c0,267.58,217.85,487.79,487.79,487.79s487.84-220.12,487.84-487.79c0-5.93-.14-11.84-.36-17.72C3360,1648.1,3360,1633.45,3360,1627.72Zm-487.48,371.17h0c-176,0-318.69-142.72-318.68-318.74s142.71-318.71,318.73-318.7,318.69,142.72,318.69,318.72S3048.55,1998.89,2872.52,1998.89Z"/><path class="cls-2" d="M487.79,1192.38C217.85,1192.38,0,1412.59,0,1680.17c0,5.93.14,11.84.34,17.72v693.22c-.18,2.29-.34,4.6-.34,6.92a83.36,83.36,0,0,0,166.71,0v-.68l-.3-137.68-.31-198.27v-12.71l-1.06-2.34c202.34,178.1,510.74,158.45,688.85-43.89A488.14,488.14,0,0,0,975.6,1680.17C975.6,1412.59,757.73,1192.38,487.79,1192.38Zm0,806.51c-176,0-318.72-142.72-318.72-318.72s142.7-318.72,318.72-318.72,318.72,142.7,318.72,318.72S663.81,1998.89,487.79,1998.89Z"/></g></g></svg>