<svg xmlns="http://www.w3.org/2000/svg" viewBox="0 0 360 640"><defs><style>.cls-1{fill:#456b78;}.cls-2{fill:#fff;}</style></defs><title>Asset 3</title><g id="Layer_2" data-name="Layer 2"><g id="Layer_1-2" data-name="Layer 1"><path class="cls-1" d="M0,0V640H360V0ZM194.28,328.69c-3,5.78-8,8.36-14.49,8.58A16.07,16.07,0,0,1,164,323.65c-1-6.23.22-11.94,4.89-16.41a15.37,15.37,0,0,1,16.22-3.59c5.93,1.92,9.56,6.21,10.77,12.35A19,19,0,0,1,194.28,328.69Z"/><path class="cls-2" d="M262.56,320.57c-.16,1.08-.37,2.15-.47,3.23-1,10.92-10.78,20.57-21.76,21.52-6.54.57-12.69-.6-18.08-4.46a24.42,24.42,0,0,1-10.08-17,26.69,26.69,0,0,1,4.73-19.88A22.91,22.91,0,0,1,251,300.73l1.93,1.82c0-.69.08-1.11.08-1.52,0-5.32,0-10.64,0-16,0-2.24.08-4.47.09-6.71a5,5,0,0,1,3.24-4.83H259c1.68.74,3.08,1.72,3.35,3.73a1.91,1.91,0,0,0,.25.59Zm-25.17,16.69c4.21-.38,6.31-1,8.54-2.57a18.3,18.3,0,0,0,3.22-26.5c-6.79-7.42-18.24-7.2-24.34.64a18.08,18.08,0,0,0-1.29,20.77A15.54,15.54,0,0,0,237.39,337.26Z"/><path class="cls-2" d="M97.44,318.65c.22-1.31.42-2.63.65-3.94,1.87-10.45,8.35-16.65,18.31-19.26,8.9-2.34,17-.37,23.76,5.94,5.29,4.93,7.71,11.22,7.71,18.45,0,6.29-1.55,12.06-5.53,17.06a22.86,22.86,0,0,1-33.57,2.3l-1.59-1.48-.29.18c0,.42-.06.83-.06,1.25v21.24c0,.44,0,.88,0,1.32-.09,2.71-1.38,4.34-3.71,4.68a4.5,4.5,0,0,1-5.41-3.21,1.85,1.85,0,0,0-.25-.37Zm41.66,1.75a46.37,46.37,0,0,0-.65-4.73c-1.51-6.43-5.47-10.71-11.86-12.32a15.09,15.09,0,0,0-16.3,5.41c-3.83,4.7-4.67,10.1-3.28,16a16.2,16.2,0,0,0,18.89,12.18A16.78,16.78,0,0,0,139.1,320.4Z"/><path class="cls-2" d="M179.66,345.45c-9.47-.11-17-4-21.76-12.41-2.61-4.61-3.24-9.73-3.11-14.94A23.78,23.78,0,0,1,176,294.87c7.32-.9,14.09.42,20,5a23.1,23.1,0,0,1,8.57,14.25c1.18,6.15.85,12.21-2,17.87-4.13,8.26-11,12.62-20.17,13.28C181.53,345.36,180.66,345.39,179.66,345.45Zm.07-8.2c6.53-.22,11.5-2.8,14.49-8.57a19,19,0,0,0,1.61-12.7c-1.21-6.13-4.84-10.42-10.78-12.35s-11.62-.81-16.21,3.59-5.86,10.19-4.9,16.41A16.07,16.07,0,0,0,179.73,337.25Z"/></g></g></svg>