<svg xmlns="http://www.w3.org/2000/svg" viewBox="0 0 1864.27 889"><defs><style>.cls-1{fill:#fff;}</style></defs><title>pod logo final</title><g id="Layer_2" data-name="Layer 2"><g id="Layer_1-2" data-name="Layer 1"><path class="cls-1" d="M932.91,173.88a270.24,270.24,0,0,0-271.4,269.84c-.42,148.45,120.09,271,269.85,271.4s271-121.4,271.4-269.85A270.24,270.24,0,0,0,932.91,173.88Zm-1.28,447.44A176.82,176.82,0,1,1,1109,445,176.83,176.83,0,0,1,931.63,621.32ZM1864.08,415.4V50.08c.1-1.27.19-2.54.19-3.84a46.25,46.25,0,0,0-92.49,0c0,.13,0,.25,0,.38h0L1772,123l.17,110.07v7.05l.58,1.3A270.78,270.78,0,0,0,1323,444.5c0,148.45,120.86,270.62,270.62,270.62S1864.27,593,1864.27,444.5c0-3.29-.08-6.57-.2-9.83C1864.07,426.71,1864.08,418.58,1864.08,415.4ZM1593.64,621.32A176.82,176.82,0,1,1,1770.47,444.5,176.83,176.83,0,0,1,1593.64,621.32ZM.19,473.6V838.92c-.1,1.27-.19,2.55-.19,3.84a46.25,46.25,0,0,0,92.49,0c0-.13,0-.25,0-.38h0L92.32,766,92.15,656v-7.05l-.59-1.3A270.78,270.78,0,0,0,541.25,444.5c0-148.45-120.87-270.62-270.63-270.62S0,296.05,0,444.5c0,3.29.08,6.57.19,9.83ZM270.62,267.68A176.82,176.82,0,1,1,93.8,444.5,176.82,176.82,0,0,1,270.62,267.68Z"/></g></g></svg>