<svg xmlns="http://www.w3.org/2000/svg" viewBox="0 0 3360.33 1600"><defs><style>.cls-1{fill:#fff;}</style></defs><title>Asset 2</title><g id="Layer_2" data-name="Layer 2"><g id="Layer_1-2" data-name="Layer 1"><g id="Layer_2-2" data-name="Layer 2"><g id="Layer_1-2-2" data-name="Layer 1-2"><path class="cls-1" d="M1681.56,312.21c-269-1.16-488,216-489.19,485v1.37c-.76,267.58,216.46,488.48,486.4,489.2S2167.24,1069,2168,801.39c1.14-269-216-488-485-489.18Zm-2.3,806.51C1503.23,1118.17,1361,975,1361.53,799s143.69-318.27,319.71-317.72S1999.46,624.92,1999,800.9s-143.62,318.32-319.65,317.82ZM3360,747.55V89.06c.18-2.29.34-4.58.34-6.92a83.36,83.36,0,0,0-166.71,0v.68h0l.4,137.68.3,198.4v12.71l1,2.34c-202.29-178.16-510.7-158.61-688.87,43.68A488.1,488.1,0,0,0,2384.7,800c0,267.58,217.85,487.79,487.79,487.79S3360.33,1067.67,3360.33,800c0-5.93-.14-11.84-.36-17.72C3360,767.93,3360,753.28,3360,747.55Zm-487.47,371.17c-176,0-318.7-142.72-318.69-318.74s142.71-318.71,318.73-318.7S3191.26,624,3191.26,800,3048.55,1118.72,2872.52,1118.72ZM.34,852.45v658.49c-.18,2.29-.34,4.6-.34,6.92a83.36,83.36,0,0,0,166.71,0v-.68h0l-.3-137.68-.31-198.27v-12.71l-1.06-2.34c202.34,178.1,510.74,158.45,688.85-43.89A488.12,488.12,0,0,0,975.6,800c0-267.58-217.87-487.79-487.81-487.79S0,532.42,0,800c0,5.93.14,11.84.34,17.72ZM487.79,481.28c176,0,318.72,142.7,318.72,318.72s-142.7,318.72-318.72,318.72S169.07,976,169.07,800h0C169.07,624,311.77,481.28,487.79,481.28Z"/></g></g></g></g></svg>