<svg xmlns="http://www.w3.org/2000/svg" viewBox="0 0 164.72 93.13"><defs><style>.cls-1{fill:#456b78;}.cls-2{fill:#fff;}</style></defs><title>Mask 01</title><g id="Layer_2" data-name="Layer 2"><g id="Layer_1-2" data-name="Layer 1"><path class="cls-1" d="M0,0V92.81H164.72V0ZM94.43,60.85c-5,4.63-11.05,5.72-17.5,3.78S66.77,58,65.27,51.67a19.66,19.66,0,0,1,3.9-17.75c6-7.41,18.18-8.08,25.11-1.47a18.1,18.1,0,0,1,5.77,13.89C100.1,52.08,98.55,57.06,94.43,60.85Z"/><path class="cls-2" d="M155.29,29V27.73q0-11.13.05-22.26c0-2.56,1.14-4.27,3.2-4.91a4.55,4.55,0,0,1,6.09,4.05,11.84,11.84,0,0,1,.05,1.19V46.25c0,6.74-1.79,12.82-6.47,17.86-10.41,11.22-26.26,9.72-34.9,2.46a24.77,24.77,0,0,1-9-21.07c.33-6.72,2.51-12.79,7.4-17.65a23,23,0,0,1,31.46-.49L155,29.07ZM140.34,63.92a14.79,14.79,0,0,0,11-5.29c4.12-4.69,5-10.19,3.89-16.11-2.06-11.2-15.69-16.74-24.86-10-5.81,4.28-7.81,10.32-6.78,17.38C124.83,58.2,131.32,63.83,140.34,63.92Z"/><path class="cls-2" d="M9.38,64.64V66q0,10.47,0,20.94c0,.48,0,1,0,1.44C9.11,91.89,7.05,93.55,3.58,93,1.49,92.72.06,90.83.05,88.29q0-7.41,0-14.84c0-8.34,0-16.67.05-25,0-4.57.47-9.07,2.46-13.28,3.23-6.87,8.84-10.84,16-12.84,13.89-3.92,28,4.05,31.11,18,2.25,10,.28,19.15-7.67,26.29a22.74,22.74,0,0,1-30.43-.52L9.75,64.49ZM41.56,47.23c-.2-1.54-.28-3.1-.62-4.61-1.43-6.44-5.34-10.76-11.72-12.43a15,15,0,0,0-16.17,5.09C9.07,40,8.13,45.41,9.53,51.42c1.89,8.13,10,13.76,18.14,12.39A16.91,16.91,0,0,0,41.56,47.23Z"/><path class="cls-2" d="M57.08,45.93A23.87,23.87,0,0,1,76.52,22c8.55-1.67,16.46-.18,23.12,5.75a23.6,23.6,0,0,1,7.7,15.6,27.15,27.15,0,0,1-2.13,14.94c-4,8.35-10.73,12.87-20,13.71-4.94.44-9.75,0-14.23-2.18A23,23,0,0,1,57.76,52.09C57.42,50.06,57.3,48,57.08,45.93Zm41.47.51a16.52,16.52,0,0,0-5.3-12.66c-6.36-6-17.49-5.42-23,1.34a17.87,17.87,0,0,0-3.58,16.19c1.38,5.8,4.84,10.06,10.71,11.82s11.43.78,16-3.44C97.17,56.23,98.58,51.68,98.55,46.44Z"/></g></g></svg>